<?xml version="1.0" encoding="iso-8859-1"?>
<!-- Generator: Adobe Illustrator 19.0.0, SVG Export Plug-In . SVG Version: 6.00 Build 0)  -->
<svg version="1.1" id="Capa_1" xmlns="http://www.w3.org/2000/svg" xmlns:xlink="http://www.w3.org/1999/xlink" x="0px" y="0px"
	 viewBox="0 0 512 512" style="enable-background:new 0 0 512 512;" xml:space="preserve">
<g>
	<g>
		<path d="M165.661,79.214c-5.522,0-10,4.478-10,10v287.561c0,5.522,4.478,10,10,10s10-4.478,10-10V89.214
			C175.661,83.691,171.183,79.214,165.661,79.214z"/>
	</g>
</g>
<g>
	<g>
		<path d="M175.461,415.185c-0.12-0.64-0.32-1.26-0.57-1.87c-0.25-0.601-0.561-1.181-0.92-1.721c-0.36-0.55-0.78-1.06-1.24-1.529
			c-0.46-0.46-0.97-0.87-1.52-1.24c-0.54-0.36-1.12-0.67-1.73-0.92c-0.6-0.25-1.229-0.44-1.87-0.57c-1.29-0.26-2.609-0.26-3.91,0
			c-0.63,0.13-1.26,0.32-1.87,0.57c-0.6,0.25-1.18,0.56-1.72,0.92c-0.55,0.37-1.06,0.78-1.52,1.24c-0.46,0.47-0.88,0.979-1.25,1.529
			c-0.36,0.54-0.67,1.12-0.91,1.721c-0.25,0.609-0.45,1.229-0.57,1.87c-0.13,0.649-0.2,1.3-0.2,1.96c0,0.649,0.07,1.3,0.2,1.949
			c0.12,0.641,0.32,1.271,0.57,1.87c0.25,0.601,0.56,1.181,0.92,1.73c0.36,0.54,0.78,1.06,1.24,1.52c0.46,0.46,0.97,0.88,1.52,1.24
			c0.54,0.36,1.12,0.67,1.72,0.92c0.61,0.25,1.24,0.44,1.87,0.57c0.65,0.13,1.311,0.2,1.96,0.2c0.65,0,1.311-0.07,1.95-0.2
			c0.641-0.13,1.271-0.32,1.87-0.57c0.61-0.25,1.19-0.56,1.73-0.92c0.55-0.36,1.06-0.78,1.52-1.24c0.46-0.46,0.88-0.979,1.24-1.52
			c0.359-0.55,0.67-1.13,0.92-1.73c0.25-0.6,0.45-1.229,0.57-1.87c0.13-0.649,0.199-1.3,0.199-1.949
			C175.66,416.485,175.591,415.834,175.461,415.185z"/>
	</g>
</g>
<g>
	<g>
		<path d="M356.136,333.924c-1.725,0-3.436,0.055-5.136,0.153c14.684-46.172,24.115-91.597,28.179-135.996
			c7.28-79.539-4.262-138.527-15.227-174.007C360.477,12.827,351.619,4.276,340.257,1.2c-11.364-3.073-23.324-0.161-31.999,7.797
			c-20.395,18.708-47.655,48.539-74.227,92.466c-12.703-36.613-27.365-64.288-39.521-83.499
			c-6.294-9.948-17.079-15.888-28.85-15.888c-11.77,0-22.555,5.939-28.849,15.888c-19.855,31.381-46.412,85.304-60.17,163.981
			c-16.601,94.936-10.292,201.037,18.748,315.356c1.554,6.117,6,11.124,11.895,13.394c2.269,0.874,4.648,1.304,7.02,1.304
			c3.805,0,7.585-1.107,10.831-3.267l40.525-26.948l40.525,26.947c5.27,3.506,11.944,4.239,17.852,1.964
			c5.895-2.27,10.341-7.276,11.895-13.393c0.599-2.359,1.174-4.71,1.754-7.063l9.289,10.6c3.727,4.253,9.112,6.664,14.71,6.664
			c0.667,0,1.337-0.035,2.008-0.104c6.282-0.65,11.883-4.32,14.98-9.818c3.465-6.148,6.838-12.29,10.13-18.423
			c16.201,19.114,40.372,31.27,67.333,31.27c48.663,0,88.253-39.59,88.253-88.252C444.39,373.514,404.799,333.924,356.136,333.924z
			 M216.716,491.716l-40.237-26.757c-3.286-2.185-7.052-3.277-10.817-3.277c-3.765,0-7.532,1.093-10.818,3.277l-40.237,26.757
			C86.407,380.4,80.264,277.348,96.343,185.39c13.193-75.452,38.479-126.879,57.369-156.732c2.646-4.182,7.002-6.581,11.948-6.581
			c4.947,0,9.303,2.399,11.949,6.581c18.889,29.854,44.175,81.28,57.368,156.732C251.057,277.343,244.911,380.408,216.716,491.716z
			 M276.367,459.906c-4.734,9.066-9.658,18.154-14.782,27.26l-18.293-20.875c10.711-48.524,17.204-95.473,19.482-140.621
			l64.365-237.748c1.443-5.331-1.708-10.822-7.039-12.266c-5.327-1.445-10.822,1.709-12.266,7.039l-45.301,167.329
			c-1.384-23.27-3.99-45.981-7.854-68.078c-3.459-19.782-7.728-37.996-12.495-54.683c28.102-50.523,57.935-83.661,79.594-103.528
			c3.647-3.345,8.479-4.521,13.253-3.229c4.775,1.293,8.353,4.746,9.814,9.474c10.431,33.753,21.399,90,14.417,166.278
			c-4.234,46.256-14.501,93.725-30.68,142.076c-35.209,11.601-60.698,44.798-60.698,83.842
			C267.884,435.668,270.931,448.46,276.367,459.906z M356.136,490.428c-8.613,0-16.85-1.62-24.445-4.544
			c-1.699-9.021-7.84-50.619,17.737-74.356c4.048-3.758,4.284-10.085,0.527-14.133c-3.758-4.049-10.085-4.283-14.133-0.527
			c-15.542,14.426-24.467,35.606-25.81,61.253c-0.27,5.156-0.208,10.001,0.026,14.336c-13.607-12.485-22.154-30.401-22.154-50.28
			c0-37.635,30.617-68.252,68.252-68.252c37.635,0,68.253,30.617,68.253,68.252S393.771,490.428,356.136,490.428z"/>
	</g>
</g>
<g>
	<g>
		<path d="M381.254,378.215c-0.13-0.64-0.32-1.27-0.57-1.87c-0.25-0.609-0.561-1.189-0.92-1.729c-0.37-0.55-0.78-1.061-1.25-1.521
			c-0.46-0.46-0.97-0.88-1.521-1.239c-0.54-0.36-1.12-0.67-1.72-0.92c-0.61-0.25-1.229-0.45-1.87-0.58c-1.29-0.25-2.62-0.25-3.91,0
			c-0.64,0.13-1.27,0.33-1.87,0.58c-0.6,0.25-1.18,0.56-1.729,0.92c-0.54,0.359-1.061,0.779-1.521,1.239
			c-0.46,0.46-0.88,0.971-1.239,1.521c-0.36,0.54-0.67,1.12-0.92,1.729c-0.25,0.601-0.44,1.23-0.57,1.87
			c-0.13,0.641-0.2,1.301-0.2,1.95c0,0.65,0.07,1.311,0.2,1.95c0.13,0.639,0.32,1.27,0.57,1.87c0.25,0.609,0.56,1.189,0.92,1.729
			c0.359,0.551,0.779,1.061,1.239,1.521c0.46,0.46,0.98,0.88,1.521,1.24c0.55,0.359,1.13,0.67,1.729,0.92
			c0.601,0.25,1.23,0.449,1.87,0.569c0.65,0.13,1.301,0.2,1.96,0.2c0.65,0,1.301-0.07,1.95-0.2c0.641-0.12,1.26-0.319,1.87-0.569
			c0.6-0.25,1.18-0.561,1.72-0.92c0.551-0.36,1.061-0.78,1.521-1.24c0.47-0.46,0.88-0.97,1.25-1.521
			c0.359-0.54,0.67-1.12,0.92-1.729c0.25-0.601,0.439-1.23,0.57-1.87c0.13-0.64,0.199-1.3,0.199-1.95
			C381.453,379.516,381.384,378.855,381.254,378.215z"/>
	</g>
</g>
<g>
</g>
<g>
</g>
<g>
</g>
<g>
</g>
<g>
</g>
<g>
</g>
<g>
</g>
<g>
</g>
<g>
</g>
<g>
</g>
<g>
</g>
<g>
</g>
<g>
</g>
<g>
</g>
<g>
</g>
</svg>
